<?xml version="1.0" encoding="utf-8"?>
<!-- Generator: Adobe Illustrator 27.2.0, SVG Export Plug-In . SVG Version: 6.00 Build 0)  -->
<svg version="1.1" id="Layer_1" xmlns="http://www.w3.org/2000/svg" xmlns:xlink="http://www.w3.org/1999/xlink" x="0px" y="0px"
	 viewBox="0 0 151.2 157.1" style="enable-background:new 0 0 151.2 157.1;" xml:space="preserve">
<style type="text/css">
	.st0{fill:#0D1D28;}
	.st1{fill:url(#SVGID_1_);}
	.st2{fill:url(#SVGID_00000114032509088136360610000008093749936542935466_);}
	.st3{fill:#63200D;}
	.st4{fill:url(#SVGID_00000119805921613756241330000017137962446807851162_);}
	.st5{fill:url(#SVGID_00000103238996452337435210000002879346291547955899_);}
</style>
<g>
	<g>
		<path class="st0" d="M110.2,70.7v15.3h19v-9.1c0-29.2-20.4-52.5-47.7-55V38C96.9,40,110.2,51.6,110.2,70.7z"/>
		<path class="st0" d="M42.9,85.9v-4.8h-0.1V70.7c0-19.1,13.4-30.7,28.7-32.7V21.8c-27.4,2.5-47.8,25.8-47.8,55v9.1H42.9z"/>
	</g>
	<g>
		<linearGradient id="SVGID_1_" gradientUnits="userSpaceOnUse" x1="76.5417" y1="87.8681" x2="76.5417" y2="7.7901">
			<stop  offset="0" style="stop-color:#AF3F25"/>
			<stop  offset="0.5" style="stop-color:#E36D25"/>
			<stop  offset="1" style="stop-color:#FDC363"/>
		</linearGradient>
		<path class="st1" d="M24.6,87.9H10.8V85h-0.1V68.9c0-30.7,26.1-58.7,61-61.1V20c-27,2.3-47.1,23.3-47.1,49.7v17.6
			C24.6,87.5,24.6,87.7,24.6,87.9z M128.4,69.7v17.6c0,0.2,0,0.3,0,0.5h14V73.5h-0.1v-4.7c0-30.6-26.1-58.6-60.9-61.1v12.3
			C108.4,22.4,128.4,43.4,128.4,69.7z"/>
		
			<linearGradient id="SVGID_00000121272127790335010000000008780920561444293520_" gradientUnits="userSpaceOnUse" x1="76.5879" y1="92.5673" x2="76.5879" y2="150.7029">
			<stop  offset="0" style="stop-color:#AF3F25"/>
			<stop  offset="0.5" style="stop-color:#E36D25"/>
			<stop  offset="1" style="stop-color:#FDC363"/>
		</linearGradient>
		<path style="fill:url(#SVGID_00000121272127790335010000000008780920561444293520_);" d="M71.5,136.6v14.1
			c-33.6-2.5-59-28.7-60.6-58.1h14C27.5,113.6,45.9,134.2,71.5,136.6z M81.8,136.6v14.2c33.6-2.5,59-28.7,60.6-58.1h-14.2
			C125.4,113.6,107.2,134,81.8,136.6z"/>
		<path class="st3" d="M10.8,90.2h13.9c-0.1-0.8-0.1-1.6-0.1-2.3H10.8v1.8C10.8,89.8,10.8,90,10.8,90.2z"/>
		<path class="st3" d="M128.3,90.2h14.1c0-0.2,0-0.4,0-0.6v-1.8h-14C128.4,88.7,128.4,89.4,128.3,90.2z"/>
		
			<linearGradient id="SVGID_00000054251209748007548430000003867309697456605090_" gradientUnits="userSpaceOnUse" x1="76.4955" y1="136.5708" x2="76.4955" y2="20.045">
			<stop  offset="0" style="stop-color:#152024"/>
			<stop  offset="0.5" style="stop-color:#26333A"/>
			<stop  offset="1" style="stop-color:#4C6168"/>
		</linearGradient>
		<path style="fill:url(#SVGID_00000054251209748007548430000003867309697456605090_);" d="M128.4,69.7v17.6c0,0.2,0,0.3,0,0.5
			c0,0.8,0,1.6-0.1,2.3c-0.1,0.8-0.1,1.6-0.2,2.3c-2.6,21-20.9,41.5-46.3,44v-13.9c15-1.9,28-12.3,28-29.5V85h-0.1V64.1
			c0-17.2-13.1-27.7-28.2-29.5V20.1C108.4,22.4,128.4,43.4,128.4,69.7z M24.6,69.7v17.6c0,0.2,0,0.3,0,0.5c0,0.8,0,1.6,0.1,2.3
			c0.1,0.8,0.1,1.6,0.2,2.3c2.6,21.1,21,41.6,46.6,44v-13.9c-15-1.9-28-12.3-28-29.5V73.5h-0.1v-9.4c0-17.3,13.2-27.7,28.3-29.5V20
			C44.7,22.3,24.6,43.4,24.6,69.7z"/>
		
			<linearGradient id="SVGID_00000134960730549029370790000009300122447098577286_" gradientUnits="userSpaceOnUse" x1="77.7787" y1="150.8898" x2="77.7787" y2="122.6707">
			<stop  offset="0" style="stop-color:#85271A"/>
			<stop  offset="0.5" style="stop-color:#A43122"/>
			<stop  offset="1" style="stop-color:#CB4A27"/>
		</linearGradient>
		<path style="fill:url(#SVGID_00000134960730549029370790000009300122447098577286_);" d="M76.6,123c-0.9,0-1.9,0-2.8-0.1v13.8
			v14.1c0.9,0,1.9,0.1,2.8,0.1c1.7,0,3.5-0.1,5.2-0.2v-14.2v-13.9C80.1,122.9,78.3,123,76.6,123z"/>
	</g>
</g>
</svg>
