<?xml version="1.0" encoding="utf-8"?>
<!-- Generator: Adobe Illustrator 27.2.0, SVG Export Plug-In . SVG Version: 6.00 Build 0)  -->
<svg version="1.1" id="Layer_1" xmlns="http://www.w3.org/2000/svg" xmlns:xlink="http://www.w3.org/1999/xlink" x="0px" y="0px"
	 viewBox="0 0 340.2 70" style="enable-background:new 0 0 340.2 70;" xml:space="preserve">
<style type="text/css">
	.st0{fill:#FFFFFF;}
	.st1{fill:url(#SVGID_1_);}
	.st2{fill:url(#SVGID_00000141452222947968199200000000849416773982757543_);}
	.st3{fill:url(#SVGID_00000076601875959832371280000015263935800732011922_);}
</style>
<g>
	<path class="st0" d="M7.6,50.4l24.5-29.6H14l-5.2-7.9H43v7.8L19.4,49.5h19.5l4.1,7.9H7.5v-7H7.6z"/>
	<path class="st0" d="M80,38.2H58.7v11.3h23.5l-1.1,7.9H49.4V12.9H81v7.9H58.8v9.5H80V38.2z"/>
	<path class="st0" d="M96.9,39.6v17.8h-9.4V12.9H107c9.7,0,14.9,5.4,14.9,12.2c0,6-3.3,9.2-6.5,10.5c2.2,0.8,5.5,3.1,5.5,11.1v2.2
		c0,3,0,6.4,0.6,8.5h-9.1c-0.8-1.9-0.9-5.3-0.9-10v-0.7c0-4.9-1.2-7.2-8.4-7.2L96.9,39.6L96.9,39.6z M96.9,31.9h8.1
		c5.3,0,7.3-2,7.3-5.7c0-3.6-2.4-5.7-7.1-5.7h-8.3V31.9z"/>
	<path class="st0" d="M169.9,35c0,12.4-7.4,23.1-21.9,23.1c-14,0-21.3-10.2-21.3-22.9c0-13,8.1-22.9,21.9-22.9
		C161.6,12.2,169.9,21.4,169.9,35z M136.6,35c0,8.7,3.8,15.3,11.7,15.3c8.6,0,11.6-7.2,11.6-15.1c0-8.4-3.5-15.1-11.8-15.1
		C140.1,20.1,136.6,26.3,136.6,35z"/>
	
		<linearGradient id="SVGID_1_" gradientUnits="userSpaceOnUse" x1="170.7483" y1="30.95" x2="323.1389" y2="30.95" gradientTransform="matrix(1 0 0 -1 0 66.1102)">
		<stop  offset="0" style="stop-color:#AF4126"/>
		<stop  offset="0.5" style="stop-color:#E36E26"/>
		<stop  offset="1" style="stop-color:#FEC464"/>
	</linearGradient>
	<path class="st1" d="M221.9,57.4h-8.8c-0.3-1.2-0.7-3-0.8-4.1c-2.5,3.3-6.8,5-13,5c-13.6,0-20.5-10.3-20.5-22.7
		c0-13.7,8-23.6,22.8-23.6c13.4,0,19.6,7.7,20.4,14.5h-12.9c-0.6-2.4-2.3-5.3-7.6-5.3c-7.4,0-9.3,6.8-9.3,14c0,7,2.1,13.8,9.3,13.8
		c6.6,0,7.7-4.8,7.7-7.8v-0.3H201v-9.1h20.8v25.6H221.9z"/>
	
		<linearGradient id="SVGID_00000154390895998695222230000009370691079974136764_" gradientUnits="userSpaceOnUse" x1="168.9334" y1="30.85" x2="321.324" y2="30.85" gradientTransform="matrix(1 0 0 -1 0 66.1102)">
		<stop  offset="0" style="stop-color:#AF4126"/>
		<stop  offset="0.5" style="stop-color:#E36E26"/>
		<stop  offset="1" style="stop-color:#FEC464"/>
	</linearGradient>
	<path style="fill:url(#SVGID_00000154390895998695222230000009370691079974136764_);" d="M240.5,48.8l-2.6,8.7h-12.7L239.3,13h16.9
		l14.6,44.5h-13.6l-2.7-8.7H240.5z M252.2,39.1c-2.1-7-3.8-13.2-4.8-17.6h-0.2c-1,4.8-2.7,11.1-4.5,17.6H252.2z"/>
	
		<linearGradient id="SVGID_00000078760987819367622020000013525496033250086045_" gradientUnits="userSpaceOnUse" x1="168.9334" y1="30.95" x2="321.324" y2="30.95" gradientTransform="matrix(1 0 0 -1 0 66.1102)">
		<stop  offset="0" style="stop-color:#AF4126"/>
		<stop  offset="0.5" style="stop-color:#E36E26"/>
		<stop  offset="1" style="stop-color:#FEC464"/>
	</linearGradient>
	<path style="fill:url(#SVGID_00000078760987819367622020000013525496033250086045_);" d="M273.9,12.9h20.6c10,0,16.8,5.6,16.8,14.3
		c0,10-7.7,14.6-17.1,14.6h-7.4v15.6h-12.9V12.9z M286.8,32.6h5.3c3.7,0,6.3-1.5,6.3-5.2c0-3.8-2.6-5.3-6.3-5.3h-5.4v10.5H286.8z"/>
</g>
<g>
	<g>
		<path class="st0" d="M325.4,53.6c0,1,0.1,2.8,0.2,3.8h-3.1c-0.1-0.5-0.2-1.4-0.2-2c-0.6,1.4-2.1,2.3-4.4,2.3
			c-3.8,0-5.1-2.4-5.1-4.7c0-2.6,1.8-5,7.2-5c0.6,0,1.3,0,2,0v-1.2c0-1.3-0.4-2.5-2.5-2.5c-1.9,0-2.5,1-2.7,2.3h-3.4
			c0.2-2.5,1.7-4.8,6.2-4.8c3.5,0,5.9,1.3,5.9,5v6.8H325.4z M322.1,50.3c-0.6,0-1.2,0-2.1,0c-3.1,0-3.7,1.3-3.7,2.4
			c0,1.2,0.7,2.2,2.4,2.2c2.6,0,3.3-1.8,3.3-4.3v-0.3H322.1z"/>
		<path class="st0" d="M328.7,42h3.5v15.4h-3.5V42z"/>
	</g>
</g>
<circle class="st0" cx="308.7" cy="55.4" r="2"/>
<circle class="st0" cx="330.5" cy="38.5" r="2"/>
</svg>
